<svg width="2895" height="517" viewBox="0 0 2895 517" fill="none" xmlns="http://www.w3.org/2000/svg">
<g clip-path="url(#clip0_114_22)">
<g clip-path="url(#clip1_114_22)">
<circle cx="800.5" cy="855.5" r="684" transform="rotate(-90 800.5 855.5)" stroke="#DD0344" stroke-width="333"/>
<circle cx="12.5" cy="855.5" r="684" stroke="url(#paint0_radial_114_22)" stroke-opacity="0.78" stroke-width="333"/>
</g>
<path d="M1266.7 259.93C1266.7 283.133 1263.66 305.516 1257.56 327.078C1251.7 348.406 1243.27 368.445 1232.25 387.195C1221.23 405.711 1208.11 422.703 1192.88 438.172C1177.64 453.406 1160.65 466.531 1141.9 477.547C1123.15 488.562 1102.99 497.117 1081.43 503.211C1060.1 509.07 1037.84 512 1014.63 512H862.758V7.85938H1014.63C1037.84 7.85938 1060.1 10.9062 1081.43 17C1102.99 22.8594 1123.15 31.2969 1141.9 42.3125C1160.65 53.3281 1177.64 66.5703 1192.88 82.0391C1208.11 97.2734 1221.23 114.266 1232.25 133.016C1243.27 151.531 1251.7 171.57 1257.56 193.133C1263.66 214.461 1266.7 236.727 1266.7 259.93ZM1165.8 259.93C1165.8 239.07 1161.82 219.5 1153.85 201.219C1146.12 182.938 1135.34 167 1121.51 153.406C1107.91 139.578 1091.86 128.68 1073.34 120.711C1055.06 112.742 1035.49 108.758 1014.63 108.758H964.359V411.102H1014.63C1035.49 411.102 1055.06 407.234 1073.34 399.5C1091.86 391.531 1107.91 380.75 1121.51 367.156C1135.34 353.328 1146.12 337.273 1153.85 318.992C1161.82 300.477 1165.8 280.789 1165.8 259.93ZM1434.75 512H1333.85V7.85938H1434.75V512ZM1825.34 310.555V209.656C1825.34 195.828 1822.64 182.82 1817.25 170.633C1812.09 158.211 1804.95 147.43 1795.8 138.289C1786.66 129.148 1775.88 122 1763.46 116.844C1751.27 111.453 1738.27 108.758 1724.44 108.758C1710.61 108.758 1697.48 111.453 1685.06 116.844C1672.88 122 1662.21 129.148 1653.07 138.289C1643.93 147.43 1636.66 158.211 1631.27 170.633C1626.12 182.82 1623.54 195.828 1623.54 209.656V310.555H1825.34ZM1926.23 512H1825.34V411.102H1623.54V512H1522.99V209.656C1522.99 181.766 1528.27 155.633 1538.81 131.258C1549.36 106.648 1563.66 85.2031 1581.7 66.9219C1599.98 48.6406 1621.31 34.2266 1645.69 23.6797C1670.3 13.1328 1696.55 7.85938 1724.44 7.85938C1752.33 7.85938 1778.46 13.1328 1802.84 23.6797C1827.45 34.2266 1848.89 48.6406 1867.17 66.9219C1885.45 85.2031 1899.87 106.648 1910.41 131.258C1920.96 155.633 1926.23 181.766 1926.23 209.656V512ZM2417.72 259.93C2417.72 283.133 2414.67 305.516 2408.58 327.078C2402.72 348.406 2394.28 368.445 2383.27 387.195C2372.25 405.711 2359.12 422.703 2343.89 438.172C2328.66 453.406 2311.66 466.531 2292.91 477.547C2274.16 488.562 2254.01 497.117 2232.45 503.211C2211.12 509.07 2188.85 512 2165.65 512H2013.77V7.85938H2165.65C2188.85 7.85938 2211.12 10.9062 2232.45 17C2254.01 22.8594 2274.16 31.2969 2292.91 42.3125C2311.66 53.3281 2328.66 66.5703 2343.89 82.0391C2359.12 97.2734 2372.25 114.266 2383.27 133.016C2394.28 151.531 2402.72 171.57 2408.58 193.133C2414.67 214.461 2417.72 236.727 2417.72 259.93ZM2316.82 259.93C2316.82 239.07 2312.84 219.5 2304.87 201.219C2297.13 182.938 2286.35 167 2272.52 153.406C2258.93 139.578 2242.88 128.68 2224.36 120.711C2206.08 112.742 2186.51 108.758 2165.65 108.758H2115.38V411.102H2165.65C2186.51 411.102 2206.08 407.234 2224.36 399.5C2242.88 391.531 2258.93 380.75 2272.52 367.156C2286.35 353.328 2297.13 337.273 2304.87 318.992C2312.84 300.477 2316.82 280.789 2316.82 259.93ZM2781.59 310.555V209.656C2781.59 195.828 2778.89 182.82 2773.5 170.633C2768.34 158.211 2761.2 147.43 2752.05 138.289C2742.91 129.148 2732.13 122 2719.71 116.844C2707.52 111.453 2694.52 108.758 2680.69 108.758C2666.86 108.758 2653.73 111.453 2641.31 116.844C2629.12 122 2618.46 129.148 2609.32 138.289C2600.18 147.43 2592.91 158.211 2587.52 170.633C2582.37 182.82 2579.79 195.828 2579.79 209.656V310.555H2781.59ZM2882.48 512H2781.59V411.102H2579.79V512H2479.24V209.656C2479.24 181.766 2484.52 155.633 2495.06 131.258C2505.61 106.648 2519.91 85.2031 2537.95 66.9219C2556.23 48.6406 2577.56 34.2266 2601.94 23.6797C2626.55 13.1328 2652.8 7.85938 2680.69 7.85938C2708.58 7.85938 2734.71 13.1328 2759.09 23.6797C2783.7 34.2266 2805.14 48.6406 2823.42 66.9219C2841.7 85.2031 2856.12 106.648 2866.66 131.258C2877.21 155.633 2882.48 181.766 2882.48 209.656V512Z" fill="#DD0344"/>
</g>
<defs>
<radialGradient id="paint0_radial_114_22" cx="0" cy="0" r="1" gradientUnits="userSpaceOnUse" gradientTransform="translate(12.5 855.5) rotate(90) scale(850.5)">
<stop stop-color="#FF0000"/>
<stop offset="1" stop-color="#FFB800"/>
</radialGradient>
<clipPath id="clip0_114_22">
<rect width="2895" height="517" fill="white"/>
</clipPath>
<clipPath id="clip1_114_22">
<rect width="768" height="507" fill="white" transform="translate(15 5)"/>
</clipPath>
</defs>
</svg>
