<svg version="1.1" xmlns="http://www.w3.org/2000/svg" xmlns:xlink="http://www.w3.org/1999/xlink" width="24" height="24" viewBox="0,0,256,256"><g fill="none" fill-rule="nonzero" stroke="#000000" stroke-width="2" stroke-linecap="round" stroke-linejoin="round" stroke-miterlimit="10" stroke-dasharray="" stroke-dashoffset="0" font-family="none" font-weight="none" font-size="none" text-anchor="none" style="mix-blend-mode: normal"><g transform="translate(-5.93001,5.71667) scale(10.66667,10.66667)"><path d="M15.05,5c1.99799,0.38982 3.56018,1.95201 3.95,3.95M15.05,1c4.17955,0.46431 7.48043,3.76104 7.95,7.94M22,16.92v3c0.00229,0.56315 -0.23295,1.10116 -0.64792,1.48186c-0.41497,0.38071 -0.97121,0.56882 -1.53208,0.51814c-3.07717,-0.33436 -6.033,-1.38586 -8.63,-3.07c-2.41617,-1.53534 -4.46466,-3.58383 -6,-6c-1.69002,-2.6088 -2.74176,-5.57901 -3.07,-8.67c-0.05053,-0.55913 0.13627,-1.11375 0.51477,-1.52838c0.37849,-0.41463 0.91383,-0.65109 1.47523,-0.65162h3c1.00386,-0.00988 1.8595,0.72597 2,1.72c0.12662,0.96007 0.36145,1.90273 0.7,2.81c0.27474,0.73088 0.09902,1.55481 -0.45,2.11l-1.27,1.27c1.42356,2.50355 3.49645,4.57644 6,6l1.27,-1.27c0.55519,-0.54902 1.37912,-0.72474 2.11,-0.45c0.90727,0.33855 1.84993,0.57338 2.81,0.7c1.00556,0.14186 1.74519,1.01479 1.72,2.03z"></path></g></g></svg>