<svg viewBox="0 0 32 32" xmlns="http://www.w3.org/2000/svg"><path d="M24.19 27.11a1 1 0 0 1-.58-.18L14 20.19a1 1 0 0 1-.42-.73 1 1 0 0 1 .29-.8L16.49 16 12 18.81l2 4.59.88-.88a1 1 0 0 1 1.42 1.41l-2 1.92a1 1 0 0 1-1.63-.31L9.78 18.8a1 1 0 0 1 .4-1.24L22.7 9.85a1 1 0 0 1 1.23 1.56l-7.82 7.82 7.44 5.22 4-17-21.77 8.1 2.41 1a1 1 0 1 1-.75 1.85l-4.81-1.95a1 1 0 0 1 0-1.87L28.65 5a1 1 0 0 1 1 .19 1 1 0 0 1 .31 1l-4.8 20.15a1 1 0 0 1-.62.71 1.07 1.07 0 0 1-.35.06Z" fill="#dd194f" class="fill-010101"></path></svg>