<svg viewBox="0 0 128 128" xml:space="preserve" xmlns="http://www.w3.org/2000/svg"><g clip-rule="evenodd" fill-rule="evenodd"><path fill="none" d="M0 0h128v128H0z"></path><path d="M127.936 34.612c-.557 12.322-9.272 29.166-26.085 50.539-17.4 22.349-32.144 33.516-44.193 33.516-7.451 0-13.765-6.794-18.921-20.427-3.454-12.508-6.886-25.016-10.333-37.487-3.838-13.64-7.948-20.457-12.343-20.457-.956 0-4.29 1.989-10.04 5.975L0 38.59a1723.621 1723.621 0 0 0 18.657-16.456c8.399-7.196 14.713-10.973 18.928-11.368 9.934-.954 16.061 5.774 18.371 20.159 2.461 15.533 4.192 25.187 5.148 28.972 2.875 12.873 6.021 19.295 9.468 19.295 2.672 0 6.691-4.157 12.049-12.478 5.359-8.336 8.211-14.669 8.602-19.034.768-7.196-2.1-10.772-8.602-10.772-3.063 0-6.224.641-9.468 1.982 6.322-20.256 18.364-30.104 36.155-29.531 13.179.363 19.403 8.796 18.628 25.253" fill="#dc0043" class="fill-00b2ea"></path></g></svg>