<svg version="1.0" viewBox="0 0 100 100" xml:space="preserve" xmlns="http://www.w3.org/2000/svg"><path d="M88.884 30.942c-.42-3.503-3.721-6.864-7.175-7.313a257.142 257.142 0 0 0-63.415.001c-3.457.448-6.758 3.809-7.178 7.312-1.487 12.835-1.487 25.283 0 38.118.42 3.503 3.721 6.865 7.178 7.312a257.288 257.288 0 0 0 63.415 0c3.454-.446 6.755-3.809 7.175-7.312 1.487-12.835 1.487-25.283 0-38.118zm-6.621 37.35c-.075.465-.932 1.363-1.426 1.471-10.16 1.26-20.551 1.904-30.837 1.904s-20.677-.645-30.886-1.91c-.449-.102-1.302-1-1.38-1.494-1.423-12.279-1.423-24.245.007-36.553.071-.467.928-1.364 1.426-1.471a251.193 251.193 0 0 1 30.836-1.904c10.283 0 20.674.643 30.886 1.911.439.099 1.299.996 1.377 1.494 1.422 12.278 1.422 24.243-.003 36.552z" fill="#dd0344" class="fill-000000"></path><path d="M43.333 36.667v26.667l20-13.333-20-13.334z" fill="#dd0344" class="fill-000000"></path></svg>